<svg id="Layer_1" data-name="Layer 1" xmlns="http://www.w3.org/2000/svg" viewBox="0 0 395 395"><defs><style>.cls-1{fill:#8de4ff;}.cls-2{fill:#4d4d4d;}.cls-3{fill:#b5b5b5;}.cls-4{fill:none;}.cls-5{fill:#fff;}.cls-6{fill:#1c8cd0;}.cls-7{fill:#006793;}.cls-8{fill:#004256;}.cls-9{fill:#63a4ce;}.cls-10{fill:#e62010;}.cls-11{fill:#e6e6d6;}.cls-12{fill:#d40400;}.cls-13{fill:#d15c4a;}.cls-14{fill:#00223e;}.cls-15{fill:#35a5f9;}.cls-16{fill:#1380bc;}.cls-17{fill:#085b7f;}.cls-18{fill:#7cbdf7;}.cls-19{fill:#ff3939;}.cls-20{fill:#ed1d1d;}.cls-21{fill:#ea7573;}.cls-22{fill:#193b67;}</style></defs><title>local-icon</title><circle class="cls-1" cx="197.5" cy="197.5" r="197.5"/><polygon class="cls-2" points="114.02 86.5 25.11 291 202.92 291 114.02 86.5"/><polygon class="cls-2" points="280.42 86.5 191.92 291 368.92 291 280.42 86.5"/><polygon class="cls-3" points="197.5 36 71 291 324 291 197.5 36"/><line class="cls-4" x1="91.42" y1="123" x2="101.42" y2="115"/><polygon class="cls-5" points="136.02 141.67 122.63 135.9 114.02 140.71 105.41 134.94 92.02 141.67 114.02 91.67 136.02 141.67"/><polygon class="cls-5" points="226.56 98.13 208.87 91.42 197.5 97.01 186.13 90.3 168.44 98.13 197.5 40 226.56 98.13"/><polygon class="cls-5" points="302.42 141.67 289.02 135.9 280.42 140.71 271.81 134.94 258.42 141.67 280.42 91.67 302.42 141.67"/><rect class="cls-6" x="40.55" y="247.25" width="85.02" height="60.78"/><rect class="cls-7" x="40.55" y="243.43" width="85.02" height="3.82"/><polygon class="cls-7" points="40.55 243.43 40.55 247.25 36.83 243.43 40.55 243.43"/><polygon class="cls-7" points="125.57 243.43 125.57 247.25 129.21 243.43 125.57 243.43"/><rect class="cls-8" x="36.83" y="240.39" width="92.37" height="3.04"/><rect class="cls-7" x="38.69" y="269.13" width="12.03" height="12.03"/><rect class="cls-7" x="115.36" y="269.13" width="12.03" height="12.03"/><path class="cls-9" d="M44.7,272.31h0a2.83,2.83,0,0,1,2.83,2.83h0A2.83,2.83,0,0,1,44.7,278h0a2.83,2.83,0,0,1-2.83-2.83h0A2.83,2.83,0,0,1,44.7,272.31Z"/><path class="cls-9" d="M121.37,272.31h0a2.83,2.83,0,0,1,2.83,2.83h0a2.83,2.83,0,0,1-2.83,2.83h0a2.83,2.83,0,0,1-2.83-2.83h0A2.83,2.83,0,0,1,121.37,272.31Z"/><rect class="cls-10" x="50.72" y="269.13" width="3.59" height="9.29"/><rect class="cls-11" x="54.3" y="269.13" width="3.59" height="9.29"/><rect class="cls-10" x="57.89" y="269.13" width="3.59" height="9.29"/><rect class="cls-11" x="61.45" y="269.13" width="3.59" height="9.29"/><rect class="cls-10" x="65.04" y="269.13" width="3.59" height="9.29"/><rect class="cls-11" x="68.64" y="269.13" width="3.59" height="9.29"/><rect class="cls-10" x="72.23" y="269.13" width="3.59" height="9.29"/><rect class="cls-11" x="75.83" y="269.13" width="3.59" height="9.29"/><rect class="cls-10" x="79.42" y="269.13" width="3.59" height="9.29"/><rect class="cls-11" x="82.99" y="269.13" width="3.59" height="9.29"/><rect class="cls-10" x="86.59" y="269.13" width="3.59" height="9.29"/><rect class="cls-11" x="90.18" y="269.13" width="3.59" height="9.29"/><rect class="cls-10" x="93.78" y="269.13" width="3.59" height="9.29"/><rect class="cls-11" x="97.37" y="269.13" width="3.59" height="9.29"/><rect class="cls-10" x="100.97" y="269.13" width="3.59" height="9.29"/><rect class="cls-11" x="104.56" y="269.13" width="3.59" height="9.29"/><rect class="cls-10" x="108.16" y="269.13" width="3.59" height="9.29"/><rect class="cls-11" x="111.75" y="269.13" width="3.61" height="9.29"/><rect class="cls-7" x="38.69" y="301.34" width="88.7" height="9.64"/><rect class="cls-9" x="50.72" y="278.4" width="64.65" height="29.09"/><rect class="cls-8" x="52.51" y="279.81" width="9.85" height="26.35"/><rect class="cls-8" x="63.25" y="279.81" width="9.85" height="26.35"/><rect class="cls-8" x="74.03" y="279.79" width="9.85" height="26.35"/><rect class="cls-8" x="92.92" y="279.81" width="9.85" height="26.35"/><rect class="cls-8" x="103.72" y="279.79" width="9.85" height="26.35"/><rect class="cls-12" x="50.72" y="278.4" width="3.59" height="2.17"/><circle class="cls-12" cx="52.51" cy="280.66" r="1.8"/><rect class="cls-13" x="54.3" y="278.4" width="3.59" height="2.17"/><circle class="cls-13" cx="56.1" cy="280.59" r="1.8"/><rect class="cls-12" x="57.89" y="278.4" width="3.56" height="2.17"/><rect class="cls-13" x="61.45" y="278.4" width="3.59" height="2.17"/><rect class="cls-12" x="65.04" y="278.4" width="3.59" height="2.17"/><rect class="cls-13" x="68.64" y="278.4" width="3.59" height="2.17"/><rect class="cls-12" x="72.23" y="278.4" width="3.59" height="2.17"/><rect class="cls-13" x="75.83" y="278.4" width="3.59" height="2.17"/><rect class="cls-12" x="79.42" y="278.4" width="3.57" height="2.17"/><rect class="cls-13" x="82.99" y="278.4" width="3.59" height="2.17"/><rect class="cls-12" x="86.59" y="278.4" width="3.59" height="2.17"/><rect class="cls-13" x="90.18" y="278.4" width="3.59" height="2.17"/><rect class="cls-12" x="93.78" y="278.4" width="3.59" height="2.17"/><rect class="cls-13" x="97.37" y="278.4" width="3.59" height="2.17"/><rect class="cls-12" x="100.97" y="278.4" width="3.59" height="2.17"/><rect class="cls-13" x="104.56" y="278.4" width="3.59" height="2.17"/><rect class="cls-12" x="108.16" y="278.4" width="3.59" height="2.17"/><rect class="cls-13" x="111.75" y="278.4" width="3.61" height="2.17"/><circle class="cls-12" cx="59.69" cy="280.57" r="1.8"/><circle class="cls-13" cx="63.25" cy="280.57" r="1.8"/><circle class="cls-12" cx="66.84" cy="280.59" r="1.8"/><circle class="cls-13" cx="70.43" cy="280.59" r="1.8"/><circle class="cls-12" cx="74.03" cy="280.59" r="1.8"/><circle class="cls-13" cx="77.62" cy="280.57" r="1.8"/><circle class="cls-12" cx="81.21" cy="280.59" r="1.8"/><circle class="cls-13" cx="84.8" cy="280.57" r="1.8"/><circle class="cls-12" cx="88.38" cy="280.57" r="1.8"/><circle class="cls-13" cx="91.98" cy="280.59" r="1.8"/><circle class="cls-12" cx="95.57" cy="280.57" r="1.8"/><circle class="cls-13" cx="99.17" cy="280.57" r="1.8"/><circle class="cls-12" cx="102.76" cy="280.57" r="1.8"/><circle class="cls-13" cx="106.36" cy="280.57" r="1.8"/><circle class="cls-12" cx="109.95" cy="280.53" r="1.8"/><circle class="cls-13" cx="113.56" cy="280.53" r="1.8"/><rect class="cls-7" x="44.63" y="262.62" width="12.18" height="1.13"/><rect class="cls-7" x="60.8" y="262.62" width="12.18" height="1.13"/><rect class="cls-7" x="76.97" y="262.62" width="12.18" height="1.13"/><rect class="cls-7" x="93.46" y="262.62" width="12.18" height="1.13"/><rect class="cls-7" x="109.95" y="262.62" width="12.18" height="1.13"/><rect class="cls-14" x="45.86" y="253.5" width="9.84" height="9.12"/><rect class="cls-14" x="61.97" y="253.5" width="9.84" height="9.12"/><rect class="cls-14" x="78.07" y="253.5" width="9.84" height="9.12"/><rect class="cls-14" x="94.63" y="253.5" width="9.84" height="9.12"/><rect class="cls-14" x="111.12" y="253.5" width="9.84" height="9.12"/><ellipse class="cls-14" cx="50.78" cy="253.5" rx="4.92" ry="2.11"/><ellipse class="cls-14" cx="66.89" cy="253.5" rx="4.92" ry="2.11"/><ellipse class="cls-14" cx="82.99" cy="253.5" rx="4.92" ry="2.11"/><ellipse class="cls-14" cx="99.55" cy="253.5" rx="4.92" ry="2.11"/><ellipse class="cls-14" cx="116.04" cy="253.5" rx="4.92" ry="2.11"/><rect class="cls-15" x="136.35" y="232.84" width="122.4" height="87.5"/><rect class="cls-16" x="136.35" y="227.34" width="122.4" height="5.5"/><polygon class="cls-16" points="136.35 227.34 136.35 232.84 131 227.34 136.35 227.34"/><polygon class="cls-16" points="258.75 227.34 258.75 232.84 263.99 227.34 258.75 227.34"/><rect class="cls-17" x="131" y="222.96" width="132.99" height="4.38"/><rect class="cls-16" x="133.67" y="264.34" width="17.31" height="17.31"/><rect class="cls-16" x="244.06" y="264.34" width="17.31" height="17.31"/><path class="cls-18" d="M142.32,268.92h0A4.08,4.08,0,0,1,146.4,273h0a4.08,4.08,0,0,1-4.07,4.08h0a4.08,4.08,0,0,1-4.07-4.08h0A4.08,4.08,0,0,1,142.32,268.92Z"/><path class="cls-18" d="M252.71,268.92h0a4.08,4.08,0,0,1,4.07,4.08h0a4.08,4.08,0,0,1-4.07,4.08h0a4.08,4.08,0,0,1-4.07-4.08h0A4.08,4.08,0,0,1,252.71,268.92Z"/><rect class="cls-19" x="150.99" y="264.34" width="5.18" height="13.38"/><rect class="cls-5" x="156.15" y="264.34" width="5.18" height="13.38"/><rect class="cls-19" x="161.31" y="264.34" width="5.18" height="13.38"/><rect class="cls-5" x="166.44" y="264.34" width="5.18" height="13.38"/><rect class="cls-19" x="171.61" y="264.34" width="5.18" height="13.38"/><rect class="cls-5" x="176.79" y="264.34" width="5.18" height="13.38"/><rect class="cls-19" x="181.96" y="264.34" width="5.18" height="13.38"/><rect class="cls-5" x="187.14" y="264.34" width="5.18" height="13.38"/><rect class="cls-19" x="192.31" y="264.34" width="5.18" height="13.38"/><rect class="cls-5" x="197.45" y="264.34" width="5.18" height="13.38"/><rect class="cls-19" x="202.63" y="264.34" width="5.18" height="13.38"/><rect class="cls-5" x="207.8" y="264.34" width="5.18" height="13.38"/><rect class="cls-19" x="212.98" y="264.34" width="5.18" height="13.38"/><rect class="cls-5" x="218.16" y="264.34" width="5.18" height="13.38"/><rect class="cls-19" x="223.33" y="264.34" width="5.18" height="13.38"/><rect class="cls-5" x="228.5" y="264.34" width="5.18" height="13.38"/><rect class="cls-19" x="233.68" y="264.34" width="5.18" height="13.38"/><rect class="cls-5" x="238.86" y="264.34" width="5.2" height="13.38"/><rect class="cls-16" x="133.67" y="310.71" width="127.69" height="13.88"/><rect class="cls-18" x="150.99" y="277.69" width="93.07" height="41.88"/><rect class="cls-17" x="153.57" y="279.71" width="14.17" height="37.94"/><rect class="cls-17" x="169.02" y="279.71" width="14.17" height="37.94"/><rect class="cls-17" x="184.55" y="279.68" width="14.17" height="37.94"/><rect class="cls-17" x="211.74" y="279.71" width="14.17" height="37.94"/><rect class="cls-17" x="227.29" y="279.68" width="14.17" height="37.94"/><rect class="cls-20" x="150.99" y="277.69" width="5.16" height="3.13"/><circle class="cls-20" cx="153.57" cy="280.94" r="2.59"/><rect class="cls-21" x="156.15" y="277.69" width="5.16" height="3.13"/><circle class="cls-21" cx="158.74" cy="280.84" r="2.59"/><rect class="cls-20" x="161.31" y="277.69" width="5.12" height="3.13"/><rect class="cls-21" x="166.44" y="277.69" width="5.18" height="3.13"/><rect class="cls-20" x="171.61" y="277.69" width="5.18" height="3.13"/><rect class="cls-21" x="176.79" y="277.69" width="5.18" height="3.13"/><rect class="cls-20" x="181.96" y="277.69" width="5.18" height="3.13"/><rect class="cls-21" x="187.14" y="277.69" width="5.18" height="3.13"/><rect class="cls-20" x="192.31" y="277.69" width="5.14" height="3.13"/><rect class="cls-21" x="197.45" y="277.69" width="5.18" height="3.13"/><rect class="cls-20" x="202.63" y="277.69" width="5.18" height="3.13"/><rect class="cls-21" x="207.8" y="277.69" width="5.18" height="3.13"/><rect class="cls-20" x="212.98" y="277.69" width="5.18" height="3.13"/><rect class="cls-21" x="218.16" y="277.69" width="5.17" height="3.13"/><rect class="cls-20" x="223.33" y="277.69" width="5.17" height="3.13"/><rect class="cls-21" x="228.51" y="277.69" width="5.17" height="3.13"/><rect class="cls-20" x="233.68" y="277.69" width="5.17" height="3.13"/><rect class="cls-21" x="238.85" y="277.69" width="5.2" height="3.13"/><circle class="cls-20" cx="163.91" cy="280.81" r="2.59"/><circle class="cls-21" cx="169.02" cy="280.81" r="2.59"/><circle class="cls-20" cx="174.2" cy="280.84" r="2.59"/><circle class="cls-21" cx="179.38" cy="280.84" r="2.59"/><circle class="cls-20" cx="184.55" cy="280.84" r="2.59"/><circle class="cls-21" cx="189.73" cy="280.81" r="2.59"/><circle class="cls-20" cx="194.88" cy="280.84" r="2.59"/><circle class="cls-21" cx="200.06" cy="280.81" r="2.59"/><circle class="cls-20" cx="205.22" cy="280.81" r="2.59"/><circle class="cls-21" cx="210.39" cy="280.84" r="2.59"/><circle class="cls-20" cx="215.57" cy="280.81" r="2.59"/><circle class="cls-21" cx="220.74" cy="280.81" r="2.59"/><circle class="cls-20" cx="225.92" cy="280.81" r="2.59"/><circle class="cls-21" cx="231.09" cy="280.81" r="2.59"/><circle class="cls-20" cx="236.27" cy="280.76" r="2.59"/><circle class="cls-21" cx="241.46" cy="280.76" r="2.59"/><rect class="cls-16" x="142.22" y="254.96" width="17.54" height="1.63"/><rect class="cls-16" x="165.5" y="254.96" width="17.54" height="1.63"/><rect class="cls-16" x="188.78" y="254.96" width="17.54" height="1.63"/><rect class="cls-16" x="212.52" y="254.96" width="17.54" height="1.63"/><rect class="cls-16" x="236.27" y="254.96" width="17.54" height="1.63"/><rect class="cls-22" x="144" y="241.84" width="14.17" height="13.13"/><rect class="cls-22" x="167.19" y="241.84" width="14.17" height="13.13"/><rect class="cls-22" x="190.37" y="241.84" width="14.17" height="13.13"/><rect class="cls-22" x="214.21" y="241.84" width="14.17" height="13.13"/><rect class="cls-22" x="237.95" y="241.84" width="14.17" height="13.13"/><ellipse class="cls-22" cx="151.08" cy="241.84" rx="7.08" ry="3.04"/><ellipse class="cls-22" cx="174.27" cy="241.84" rx="7.08" ry="3.04"/><ellipse class="cls-22" cx="197.45" cy="241.84" rx="7.08" ry="3.04"/><ellipse class="cls-22" cx="221.29" cy="241.84" rx="7.08" ry="3.04"/><ellipse class="cls-22" cx="245.04" cy="241.84" rx="7.08" ry="3.04"/><rect class="cls-6" x="269.57" y="246.71" width="85.02" height="60.78"/><rect class="cls-7" x="269.57" y="242.89" width="85.02" height="3.82"/><polygon class="cls-7" points="269.57 242.89 269.57 246.71 265.86 242.89 269.57 242.89"/><polygon class="cls-7" points="354.6 242.89 354.6 246.71 358.23 242.89 354.6 242.89"/><rect class="cls-8" x="265.86" y="239.85" width="92.37" height="3.04"/><rect class="cls-7" x="267.72" y="268.59" width="12.03" height="12.03"/><rect class="cls-7" x="344.39" y="268.59" width="12.03" height="12.03"/><rect class="cls-9" x="270.9" y="271.77" width="5.66" height="5.66" rx="2.83" ry="2.83"/><rect class="cls-9" x="347.57" y="271.77" width="5.66" height="5.66" rx="2.83" ry="2.83"/><rect class="cls-10" x="279.74" y="268.59" width="3.59" height="9.29"/><rect class="cls-11" x="283.33" y="268.59" width="3.59" height="9.29"/><rect class="cls-10" x="286.91" y="268.59" width="3.59" height="9.29"/><rect class="cls-11" x="290.47" y="268.59" width="3.59" height="9.29"/><rect class="cls-10" x="294.07" y="268.59" width="3.59" height="9.29"/><rect class="cls-11" x="297.66" y="268.59" width="3.59" height="9.29"/><rect class="cls-10" x="301.26" y="268.59" width="3.59" height="9.29"/><rect class="cls-11" x="304.85" y="268.59" width="3.59" height="9.29"/><rect class="cls-10" x="308.45" y="268.59" width="3.59" height="9.29"/><rect class="cls-11" x="312.02" y="268.59" width="3.59" height="9.29"/><rect class="cls-10" x="315.61" y="268.59" width="3.59" height="9.29"/><rect class="cls-11" x="319.21" y="268.59" width="3.59" height="9.29"/><rect class="cls-10" x="322.8" y="268.59" width="3.59" height="9.29"/><rect class="cls-11" x="326.4" y="268.59" width="3.59" height="9.29"/><rect class="cls-10" x="329.99" y="268.59" width="3.59" height="9.29"/><rect class="cls-11" x="333.59" y="268.59" width="3.59" height="9.29"/><rect class="cls-10" x="337.18" y="268.59" width="3.59" height="9.29"/><rect class="cls-11" x="340.78" y="268.59" width="3.61" height="9.29"/><rect class="cls-7" x="267.72" y="300.8" width="88.7" height="9.64"/><rect class="cls-9" x="279.74" y="277.86" width="64.65" height="29.09"/><rect class="cls-8" x="281.54" y="279.27" width="9.85" height="26.35"/><rect class="cls-8" x="292.27" y="279.27" width="9.85" height="26.35"/><rect class="cls-8" x="303.06" y="279.25" width="9.85" height="26.35"/><rect class="cls-8" x="321.94" y="279.27" width="9.85" height="26.35"/><rect class="cls-8" x="332.75" y="279.25" width="9.85" height="26.35"/><rect class="cls-12" x="279.75" y="277.86" width="3.59" height="2.17"/><circle class="cls-12" cx="281.54" cy="280.12" r="1.8"/><rect class="cls-13" x="283.33" y="277.86" width="3.59" height="2.17"/><circle class="cls-13" cx="285.13" cy="280.05" r="1.8"/><rect class="cls-12" x="286.91" y="277.86" width="3.56" height="2.17"/><rect class="cls-13" x="290.47" y="277.86" width="3.59" height="2.17"/><rect class="cls-12" x="294.07" y="277.86" width="3.59" height="2.17"/><rect class="cls-13" x="297.66" y="277.86" width="3.59" height="2.17"/><rect class="cls-12" x="301.26" y="277.86" width="3.59" height="2.17"/><rect class="cls-13" x="304.85" y="277.86" width="3.59" height="2.17"/><rect class="cls-12" x="308.45" y="277.86" width="3.57" height="2.17"/><rect class="cls-13" x="312.02" y="277.86" width="3.59" height="2.17"/><rect class="cls-12" x="315.61" y="277.86" width="3.59" height="2.17"/><rect class="cls-13" x="319.21" y="277.86" width="3.59" height="2.17"/><rect class="cls-12" x="322.8" y="277.86" width="3.59" height="2.17"/><rect class="cls-13" x="326.4" y="277.86" width="3.59" height="2.17"/><rect class="cls-12" x="329.99" y="277.86" width="3.59" height="2.17"/><rect class="cls-13" x="333.59" y="277.86" width="3.59" height="2.17"/><rect class="cls-12" x="337.18" y="277.86" width="3.59" height="2.17"/><rect class="cls-13" x="340.78" y="277.86" width="3.61" height="2.17"/><circle class="cls-12" cx="288.72" cy="280.03" r="1.8"/><circle class="cls-13" cx="292.27" cy="280.03" r="1.8"/><circle class="cls-12" cx="295.87" cy="280.05" r="1.8"/><circle class="cls-13" cx="299.46" cy="280.05" r="1.8"/><circle class="cls-12" cx="303.06" cy="280.05" r="1.8"/><circle class="cls-13" cx="306.65" cy="280.03" r="1.8"/><circle class="cls-12" cx="310.23" cy="280.05" r="1.8"/><circle class="cls-13" cx="313.83" cy="280.03" r="1.8"/><circle class="cls-12" cx="317.41" cy="280.03" r="1.8"/><circle class="cls-13" cx="321.01" cy="280.05" r="1.8"/><circle class="cls-12" cx="324.6" cy="280.03" r="1.8"/><circle class="cls-13" cx="328.2" cy="280.03" r="1.8"/><circle class="cls-12" cx="331.79" cy="280.03" r="1.8"/><circle class="cls-13" cx="335.38" cy="280.03" r="1.8"/><circle class="cls-12" cx="338.98" cy="279.99" r="1.8"/><circle class="cls-13" cx="342.59" cy="279.99" r="1.8"/><rect class="cls-7" x="273.65" y="262.08" width="12.18" height="1.13"/><rect class="cls-7" x="289.82" y="262.08" width="12.18" height="1.13"/><rect class="cls-7" x="305.99" y="262.08" width="12.18" height="1.13"/><rect class="cls-7" x="322.49" y="262.08" width="12.18" height="1.13"/><rect class="cls-7" x="338.98" y="262.08" width="12.18" height="1.13"/><rect class="cls-14" x="274.89" y="252.96" width="9.84" height="9.12"/><rect class="cls-14" x="290.99" y="252.96" width="9.84" height="9.12"/><rect class="cls-14" x="307.1" y="252.96" width="9.84" height="9.12"/><rect class="cls-14" x="323.66" y="252.96" width="9.84" height="9.12"/><rect class="cls-14" x="340.15" y="252.96" width="9.84" height="9.12"/><ellipse class="cls-14" cx="279.81" cy="252.96" rx="4.92" ry="2.11"/><ellipse class="cls-14" cx="295.91" cy="252.96" rx="4.92" ry="2.11"/><ellipse class="cls-14" cx="312.02" cy="252.96" rx="4.92" ry="2.11"/><ellipse class="cls-14" cx="328.58" cy="252.96" rx="4.92" ry="2.11"/><ellipse class="cls-14" cx="345.07" cy="252.96" rx="4.92" ry="2.11"/></svg>